<?xml version="1.0" encoding="UTF-8" standalone="no"?>
<svg
   xmlns:dc="http://purl.org/dc/elements/1.1/"
   xmlns:cc="http://creativecommons.org/ns#"
   xmlns:rdf="http://www.w3.org/1999/02/22-rdf-syntax-ns#"
   xmlns:svg="http://www.w3.org/2000/svg"
   xmlns="http://www.w3.org/2000/svg"
   xmlns:sodipodi="http://sodipodi.sourceforge.net/DTD/sodipodi-0.dtd"
   xmlns:inkscape="http://www.inkscape.org/namespaces/inkscape"
   sodipodi:docname="pcs-logo-no-text.svg"
   xml:space="preserve"
   inkscape:export-filename="E:\Dropbox (Personal)\PlatinumCoreSolutions\Company_Website\images\pcs-logo.png"
   height="230.73038"
   viewBox="0 0 231.04999 230.72948"
   width="231.04926"
   inkscape:export-xdpi="139.92999"
   version="1.1"
   inkscape:export-ydpi="139.92999"
   inkscape:version="0.91 r13725"
   id="svg2"><metadata
     id="metadata374"><rdf:RDF><cc:Work
         rdf:about=""><dc:format>image/svg+xml</dc:format><dc:type
           rdf:resource="http://purl.org/dc/dcmitype/StillImage" /><dc:title></dc:title></cc:Work></rdf:RDF></metadata><defs
     id="defs372" /><sodipodi:namedview
     fit-margin-left="0"
     inkscape:zoom="0.88425089"
     borderopacity="1"
     inkscape:current-layer="g6"
     inkscape:cx="242.04958"
     inkscape:cy="68.181074"
     inkscape:window-maximized="1"
     showgrid="false"
     fit-margin-right="0"
     bordercolor="#666666"
     inkscape:window-x="1920"
     guidetolerance="10"
     objecttolerance="10"
     inkscape:window-y="106"
     fit-margin-bottom="0"
     inkscape:window-width="1600"
     inkscape:pageopacity="0"
     inkscape:pageshadow="2"
     pagecolor="#000000"
     gridtolerance="10"
     inkscape:window-height="867"
     fit-margin-top="0"
     id="namedview4" /><g
     inkscape:label="PCS Logo"
     inkscape:groupmode="layer"
     transform="matrix(1.25,0,0,-1.25,-115.17521,469.75378)"
     id="g6"><g
       transform="translate(183.4,325.13)"
       id="g84"><path
         style="fill:#f47f35"
         inkscape:connector-curvature="0"
         d="M 0,0 C 0.623,-1.552 2.537,-3.405 4.251,-4.119 5.942,-4.824 6.78,-4.142 6.147,-2.616 5.519,-1.103 3.667,0.7 1.986,1.431 0.283,2.17 -0.617,1.539 0,0"
         id="path86" /></g><g
       transform="translate(176.54,326.69)"
       id="g88"><path
         style="fill:#f17038"
         inkscape:connector-curvature="0"
         d="m 0,0 c 1.069,-1.74 3.24,-3.409 4.821,-3.717 1.557,-0.303 1.944,0.835 0.89,2.53 C 4.662,0.5 2.558,2.14 0.985,2.487 -0.611,2.84 -1.064,1.732 0,0"
         id="path90" /></g><g
       transform="translate(175.52,326.76)"
       id="g92"><path
         style="fill:#f16139"
         inkscape:connector-curvature="0"
         d="M 0,0 C -1.457,1.773 -3.72,3.129 -5.074,3.029 -6.451,2.928 -6.368,1.364 -4.869,-0.462 -3.368,-2.29 -1.053,-3.644 0.281,-3.488 1.593,-3.335 1.458,-1.774 0,0"
         id="path94" /></g><g
       transform="translate(166.24,323.78)"
       id="g96"><path
         style="fill:#f05338"
         inkscape:connector-curvature="0"
         d="M 0,0 C 1.878,-1.786 4.192,-2.691 5.16,-2.037 6.112,-1.395 5.405,0.522 3.589,2.259 1.766,4.003 -0.526,4.947 -1.54,4.352 -2.571,3.748 -1.886,1.793 0,0"
         id="path98" /></g><g
       transform="translate(163.82,319.1)"
       id="g100"><path
         style="fill:#f05338"
         inkscape:connector-curvature="0"
         d="M 0,0 C 2.155,-1.59 4.293,-1.924 4.784,-0.775 5.267,0.356 3.974,2.517 1.886,4.079 -0.218,5.653 -2.377,6.057 -2.928,4.954 -3.488,3.833 -2.173,1.603 0,0"
         id="path102" /></g><g
       transform="translate(163.64,318.15)"
       id="g104"><path
         style="fill:#f05338"
         inkscape:connector-curvature="0"
         d="m 0,0 c -2.255,1.25 -4.092,1.013 -4.077,-0.563 0.016,-1.597 1.922,-3.929 4.231,-5.173 2.281,-1.23 4.053,-0.909 3.983,0.682 C 4.069,-3.483 2.228,-1.235 0,0"
         id="path106" /></g><g
       transform="translate(169.17,306.37)"
       id="g108"><path
         style="fill:#f05438"
         inkscape:connector-curvature="0"
         d="M 0,0 C -0.659,1.906 -2.943,4.047 -5.139,4.809 -7.369,5.583 -8.691,4.656 -8.054,2.709 -7.41,0.742 -5.031,-1.47 -2.779,-2.202 -0.562,-2.923 0.665,-1.925 0,0"
         id="path110" /></g><g
       transform="translate(172.8,298.66)"
       id="g112"><path
         style="fill:#f05438"
         inkscape:connector-curvature="0"
         d="M 0,0 C -1.223,2.084 -3.78,3.906 -5.748,4.084 -7.752,4.265 -8.4,2.679 -7.157,0.527 -5.906,-1.637 -3.252,-3.493 -1.269,-3.605 0.679,-3.715 1.23,-2.095 0,0"
         id="path114" /></g><g
       transform="translate(172.57,293.57)"
       id="g116"><path
         style="fill:#f05438"
         inkscape:connector-curvature="0"
         d="m 0,0 c -1.582,-0.467 -1.47,-2.588 0.278,-4.731 1.75,-2.145 4.427,-3.438 5.951,-2.897 1.496,0.531 1.314,2.634 -0.378,4.705 C 4.159,-0.853 1.552,0.458 0,0"
         id="path118" /></g><g
       transform="translate(187.49,277.73)"
       id="g120"><path
         style="fill:#f05137"
         inkscape:connector-curvature="0"
         d="M 0,0 C 0.915,1.12 0.035,3.507 -1.959,5.357 -3.961,7.214 -6.379,7.875 -7.369,6.809 -8.378,5.722 -7.519,3.271 -5.441,1.359 -3.372,-0.545 -0.932,-1.141 0,0"
         id="path122" /></g><g
       transform="translate(196.73,271.2)"
       id="g124"><path
         style="fill:#f05e38"
         inkscape:connector-curvature="0"
         d="M 0,0 C 0.284,1.588 -1.178,4.031 -3.279,5.493 -5.398,6.967 -7.411,6.919 -7.765,5.35 -8.124,3.755 -6.631,1.222 -4.442,-0.271 -2.272,-1.752 -0.289,-1.614 0,0"
         id="path126" /></g><g
       transform="translate(205.62,266.88)"
       id="g128"><path
         style="fill:#f05e38"
         inkscape:connector-curvature="0"
         d="M 0,0 C -0.319,1.889 -2.19,4.174 -4.205,5.137 -6.245,6.112 -7.696,5.383 -7.42,3.475 -7.14,1.54 -5.202,-0.831 -3.118,-1.786 -1.06,-2.729 0.323,-1.914 0,0"
         id="path130" /></g><g
       transform="translate(213.42,264.97)"
       id="g132"><path
         style="fill:#f05e38"
         inkscape:connector-curvature="0"
         d="M 0,0 C -0.835,2.013 -2.919,3.966 -4.685,4.385 -6.478,4.809 -7.286,3.501 -6.458,1.439 -5.623,-0.642 -3.46,-2.654 -1.659,-3.029 0.114,-3.398 0.843,-2.032 0,0"
         id="path134" /></g><g
       transform="translate(219.6,265.41)"
       id="g136"><path
         style="fill:#f26838"
         inkscape:connector-curvature="0"
         d="m 0,0 c -1.229,1.977 -3.338,3.481 -4.738,3.367 -1.423,-0.116 -1.583,-1.856 -0.33,-3.894 1.259,-2.048 3.435,-3.57 4.834,-3.392 C 1.142,-3.744 1.235,-1.987 0,0"
         id="path138" /></g><g
       transform="translate(224.9,263.5)"
       id="g140"><path
         style="fill:#f26838"
         inkscape:connector-curvature="0"
         d="M 0,0 C 0.922,0.647 0.45,2.632 -1.039,4.444 -2.527,6.254 -4.504,7.248 -5.469,6.657 -6.451,6.056 -6.018,4.05 -4.486,2.183 -2.952,0.316 -0.937,-0.658 0,0"
         id="path142" /></g><g
       transform="translate(226.12,272.2)"
       id="g144"><path
         style="fill:#f37337"
         inkscape:connector-curvature="0"
         d="M 0,0 C -1.62,1.549 -3.342,2.02 -3.849,1.033 -4.364,0.03 -3.43,-2.085 -1.761,-3.672 -0.097,-5.254 1.629,-5.676 2.095,-4.635 2.552,-3.611 1.614,-1.544 0,0"
         id="path146" /></g><g
       transform="translate(223.35,277.65)"
       id="g148"><path
         style="fill:#f47b39"
         inkscape:connector-curvature="0"
         d="M 0,0 C -0.057,-1.309 1.268,-3.395 2.949,-4.635 4.618,-5.866 5.974,-5.772 5.989,-4.45 6.004,-3.145 4.706,-1.12 3.078,0.098 1.439,1.324 0.056,1.291 0,0"
         id="path150" /></g><g
       transform="translate(228.43,279.94)"
       id="g152"><path
         style="fill:#f47b39"
         inkscape:connector-curvature="0"
         d="M 0,0 C -0.389,1.491 -1.945,3.377 -3.493,4.236 -5.056,5.102 -6.044,4.607 -5.679,3.105 -5.311,1.586 -3.709,-0.358 -2.12,-1.214 -0.548,-2.062 0.393,-1.508 0,0"
         id="path154" /></g><g
       transform="translate(220.61,289.07)"
       id="g156"><path
         style="fill:#f47f35"
         inkscape:connector-curvature="0"
         d="m 0,0 c 0.748,-1.636 2.518,-3.35 3.931,-3.809 1.396,-0.454 1.902,0.494 1.151,2.1 C 4.337,-0.115 2.62,1.555 1.227,2.039 -0.183,2.528 -0.742,1.623 0,0"
         id="path158" /></g><g
       transform="translate(221.37,295.08)"
       id="g160"><path
         style="fill:#f47f35"
         inkscape:connector-curvature="0"
         d="M 0,0 C -1.051,1.621 -2.84,3.015 -4.014,3.121 -5.205,3.228 -5.321,1.975 -4.253,0.313 -3.18,-1.356 -1.343,-2.769 -0.169,-2.835 0.988,-2.9 1.055,-1.628 0,0"
         id="path162" /></g><g
       transform="translate(215.73,302.75)"
       id="g164"><path
         style="fill:#f47f35"
         inkscape:connector-curvature="0"
         d="M 0,0 C -1.304,1.579 -3.082,2.646 -3.985,2.379 -4.9,2.109 -4.569,0.573 -3.231,-1.049 -1.893,-2.671 -0.083,-3.73 0.799,-3.417 1.667,-3.108 1.305,-1.58 0,0"
         id="path166" /></g><g
       transform="translate(205.25,311.59)"
       id="g168"><path
         style="fill:#f47f35"
         inkscape:connector-curvature="0"
         d="M 0,0 C -0.59,-0.636 0.181,-2.382 1.726,-3.888 3.266,-5.389 4.96,-6.052 5.508,-5.381 6.048,-4.72 5.27,-3.006 3.772,-1.539 2.269,-0.068 0.582,0.627 0,0"
         id="path170" /></g><g
       transform="translate(198.14,317.28)"
       id="g172"><path
         style="fill:#f47f35"
         inkscape:connector-curvature="0"
         d="M 0,0 C -0.221,-0.98 0.971,-2.857 2.655,-4.173 4.327,-5.48 5.82,-5.714 5.999,-4.715 6.176,-3.73 5.004,-1.902 3.373,-0.613 1.732,0.684 0.218,0.967 0,0"
         id="path174" /></g><g
       transform="translate(190.74,321.89)"
       id="g176"><path
         style="fill:#f47f35"
         inkscape:connector-curvature="0"
         d="M 0,0 C 0.187,-1.291 1.767,-3.208 3.51,-4.26 5.236,-5.301 6.444,-5.083 6.226,-3.795 6.011,-2.521 4.476,-0.66 2.781,0.384 1.068,1.438 -0.185,1.277 0,0"
         id="path178" /></g><g
       transform="translate(171.34,342.11)"
       id="g180"><path
         style="fill:#f16139"
         inkscape:connector-curvature="0"
         d="m 0,0 c 1.111,-2.698 4.375,-5.832 7.248,-6.965 2.835,-1.118 4.187,0.153 3.06,2.805 C 9.19,-1.529 6.031,1.52 3.212,2.684 0.355,3.863 -1.101,2.676 0,0"
         id="path182" /></g><g
       transform="translate(159.92,344.35)"
       id="g184"><path
         style="fill:#f05538"
         inkscape:connector-curvature="0"
         d="m 0,0 c 1.86,-2.997 5.538,-5.786 8.17,-6.21 2.592,-0.417 3.174,1.626 1.342,4.546 C 7.689,1.243 4.122,3.984 1.501,4.478 -1.159,4.979 -1.851,2.983 0,0"
         id="path186" /></g><g
       transform="translate(158.22,344.4)"
       id="g188"><path
         style="fill:#f04e37"
         inkscape:connector-curvature="0"
         d="m 0,0 c -2.503,3.026 -6.318,5.254 -8.553,4.973 -2.273,-0.285 -2.056,-3.046 0.521,-6.164 2.578,-3.12 6.479,-5.339 8.678,-4.962 C 2.809,-5.781 2.505,-3.028 0,0"
         id="path190" /></g><g
       transform="translate(151.66,335.21)"
       id="g192"><path
         style="fill:#ee4838"
         inkscape:connector-curvature="0"
         d="m 0,0 c 1.542,1.21 0.273,4.549 -2.823,7.484 -3.107,2.947 -6.949,4.441 -8.595,3.312 C -13.093,9.647 -11.857,6.239 -8.644,3.211 -5.444,0.194 -1.568,-1.231 0,0"
         id="path194" /></g><g
       transform="translate(139.26,329.94)"
       id="g196"><path
         style="fill:#ee3e39"
         inkscape:connector-curvature="0"
         d="M 0,0 C 3.648,-2.648 7.203,-3.076 7.956,-1.006 8.697,1.033 6.445,4.759 2.91,7.363 -0.654,9.989 -4.248,10.539 -5.102,8.544 -5.97,6.518 -3.679,2.67 0,0"
         id="path198" /></g><g
       transform="translate(132.3,326.94)"
       id="g200"><path
         style="fill:#ee3e39"
         inkscape:connector-curvature="0"
         d="m 0,0 c 0.108,-2.826 3.383,-6.806 7.269,-8.832 3.838,-2.001 6.753,-1.298 6.555,1.513 C 13.63,-4.545 10.467,-0.706 6.716,1.309 2.92,3.348 -0.107,2.788 0,0"
         id="path202" /></g><g
       transform="translate(135.32,312.01)"
       id="g204"><path
         style="fill:#ee3e39"
         inkscape:connector-curvature="0"
         d="m 0,0 c 1.167,-3.432 5.218,-7.164 8.983,-8.287 3.705,-1.106 5.684,0.754 4.484,4.109 C 12.278,-0.855 8.388,2.759 4.715,3.94 0.984,5.14 -1.155,3.397 0,0"
         id="path206" /></g><g
       transform="translate(144.25,300.63)"
       id="g208"><path
         style="fill:#ef4038"
         inkscape:connector-curvature="0"
         d="m 0,0 c -2.997,-0.166 -3.48,-2.97 -1.017,-6.277 2.477,-3.326 6.924,-5.808 9.871,-5.532 2.893,0.271 3.223,3.107 0.797,6.324 C 7.238,-2.287 2.943,0.163 0,0"
         id="path210" /></g><g
       transform="translate(165.86,273.97)"
       id="g212"><path
         style="fill:#ef4b37"
         inkscape:connector-curvature="0"
         d="m 0,0 c 2.252,1.423 1.269,5.022 -2.156,8.061 -3.422,3.036 -8.081,4.447 -10.45,3.132 -2.413,-1.341 -1.537,-4.995 2.002,-8.14 C -7.062,-0.094 -2.296,-1.451 0,0"
         id="path214" /></g><g
       transform="translate(170.47,261.07)"
       id="g216"><path
         style="fill:#f05137"
         inkscape:connector-curvature="0"
         d="M 0,0 C 3.688,-3.02 7.796,-3.671 9.166,-1.504 10.512,0.623 8.713,4.691 5.157,7.626 1.587,10.574 -2.496,11.344 -3.972,9.3 -5.477,7.218 -3.704,3.033 0,0"
         id="path218" /></g><g
       transform="translate(195.41,250.03)"
       id="g220"><path
         style="fill:#f05e38"
         inkscape:connector-curvature="0"
         d="m 0,0 c -0.213,2.85 -3.586,6.437 -7.567,8.065 -4.015,1.642 -7.221,0.711 -7.126,-2.135 0.096,-2.894 3.555,-6.622 7.691,-8.268 C -2.902,-3.97 0.217,-2.898 0,0"
         id="path222" /></g><g
       transform="translate(209.12,241.85)"
       id="g224"><path
         style="fill:#f26538"
         inkscape:connector-curvature="0"
         d="m 0,0 c -0.881,3.26 -4.388,6.901 -7.882,8.185 -3.537,1.299 -5.785,-0.281 -4.971,-3.584 0.825,-3.348 4.459,-7.126 8.065,-8.382 C -1.228,-5.021 0.893,-3.304 0,0"
         id="path226" /></g><g
       transform="translate(216.16,245.34)"
       id="g228"><path
         style="fill:#f26838"
         inkscape:connector-curvature="0"
         d="m 0,0 c -2.988,0.614 -4.258,-1.763 -2.782,-5.349 1.491,-3.62 5.175,-7.014 8.174,-7.54 2.954,-0.519 4.089,1.955 2.588,5.487 C 6.494,-3.902 2.944,-0.605 0,0"
         id="path230" /></g><g
       transform="translate(234.34,239.19)"
       id="g232"><path
         style="fill:#f37337"
         inkscape:connector-curvature="0"
         d="M 0,0 C -2.136,3.404 -5.704,5.905 -8.015,5.596 -10.363,5.281 -10.538,2.19 -8.359,-1.32 -6.17,-4.849 -2.489,-7.376 -0.184,-6.954 2.083,-6.54 2.146,-3.422 0,0"
         id="path234" /></g><g
       transform="translate(233.82,247.58)"
       id="g236"><path
         style="fill:#f47b39"
         inkscape:connector-curvature="0"
         d="m 0,0 c -1.593,-1.139 -0.772,-4.657 1.86,-7.843 2.634,-3.187 6.019,-4.756 7.535,-3.521 1.492,1.215 0.609,4.694 -1.949,7.786 C 4.89,-0.488 1.568,1.12 0,0"
         id="path238" /></g><g
       transform="translate(248.49,243.66)"
       id="g240"><path
         style="fill:#f58535"
         inkscape:connector-curvature="0"
         d="M 0,0 C 0.704,1.849 -0.955,5.435 -3.706,8.044 -6.467,10.662 -9.342,11.363 -10.13,9.577 -10.93,7.763 -9.274,4.09 -6.429,1.409 -3.595,-1.263 -0.716,-1.878 0,0"
         id="path242" /></g><g
       transform="translate(245.01,261.54)"
       id="g244"><path
         style="fill:#f58735"
         inkscape:connector-curvature="0"
         d="m 0,0 c -2.776,2.045 -5.062,1.881 -5.088,-0.409 -0.027,-2.321 2.273,-5.912 5.12,-7.978 2.825,-2.05 5.064,-1.78 5.021,0.562 C 5.01,-5.515 2.756,-2.03 0,0"
         id="path246" /></g><g
       transform="translate(248.2,265.58)"
       id="g248"><path
         style="fill:#f68936"
         inkscape:connector-curvature="0"
         d="M 0,0 C -0.721,2.609 -3.393,5.829 -5.999,7.229 -8.631,8.644 -10.239,7.69 -9.558,5.06 -8.87,2.401 -6.118,-0.918 -3.445,-2.311 -0.799,-3.691 0.729,-2.638 0,0"
         id="path250" /></g><g
       transform="translate(243.28,278.51)"
       id="g252"><path
         style="fill:#f58535"
         inkscape:connector-curvature="0"
         d="M 0,0 C -1.316,2.764 -4.242,5.589 -6.572,6.338 -8.931,7.097 -9.81,5.452 -8.498,2.636 -7.175,-0.203 -4.158,-3.1 -1.795,-3.805 0.538,-4.501 1.326,-2.785 0,0"
         id="path254" /></g><g
       transform="translate(235.74,291.85)"
       id="g256"><path
         style="fill:#f58135"
         inkscape:connector-curvature="0"
         d="m 0,0 c -1.823,2.788 -4.855,5.119 -6.804,5.216 -1.977,0.099 -2.103,-2.128 -0.249,-4.987 1.862,-2.872 4.975,-5.232 6.92,-5.26 C 1.785,-5.058 1.83,-2.801 0,0"
         id="path258" /></g><g
       transform="translate(226,304.99)"
       id="g260"><path
         style="fill:#f47f35"
         inkscape:connector-curvature="0"
         d="M 0,0 C -2.239,2.695 -5.238,4.446 -6.717,3.906 -8.218,3.357 -7.59,0.664 -5.292,-2.103 -2.993,-4.872 0.056,-6.608 1.499,-5.986 2.92,-5.374 2.241,-2.697 0,0"
         id="path262" /></g><g
       transform="translate(208.2,319.82)"
       id="g264"><path
         style="fill:#f37637"
         inkscape:connector-curvature="0"
         d="m 0,0 c -0.944,-1.17 0.423,-4.202 3.057,-6.749 2.627,-2.539 5.465,-3.582 6.336,-2.354 0.86,1.212 -0.517,4.187 -3.072,6.668 C 3.759,0.054 0.931,1.154 0,0"
         id="path266" /></g><g
       transform="translate(199.98,323.19)"
       id="g268"><path
         style="fill:#f17038"
         inkscape:connector-curvature="0"
         d="M 0,0 C 2.676,-2.082 5.041,-2.341 5.295,-0.613 5.547,1.093 3.646,4.116 1.036,6.17 -1.592,8.239 -3.99,8.581 -4.307,6.903 -4.629,5.202 -2.695,2.097 0,0"
         id="path270" /></g><g
       transform="translate(183.61,337.48)"
       id="g272"><path
         style="fill:#f26838"
         inkscape:connector-curvature="0"
         d="M 0,0 C 0.316,-2.309 2.837,-5.598 5.602,-7.306 8.339,-8.997 10.238,-8.472 9.874,-6.172 9.513,-3.896 7.064,-0.704 4.375,0.995 1.659,2.712 -0.313,2.283 0,0"
         id="path274" /></g><g
       transform="translate(168.24,355.76)"
       id="g276"><path
         style="fill:#f05938"
         inkscape:connector-curvature="0"
         d="m 0,0 c 4.175,-1.609 6.302,-0.051 4.839,3.403 -1.44,3.396 -5.856,7.438 -9.948,9.103 -4.161,1.693 -6.505,0.333 -5.15,-3.118 C -8.881,5.877 -4.248,1.637 0,0"
         id="path278" /></g><g
       transform="translate(155.03,366.28)"
       id="g280"><path
         style="fill:#ef4b37"
         inkscape:connector-curvature="0"
         d="m 0,0 c -2.417,3.8 -7.51,7.52 -11.479,8.367 -4.054,0.866 -5.467,-1.571 -3.046,-5.504 2.453,-3.985 7.814,-7.855 11.865,-8.584 C 1.303,-6.434 2.447,-3.847 0,0"
         id="path282" /></g><g
       transform="translate(138,368.73)"
       id="g284"><path
         style="fill:#ee3539"
         inkscape:connector-curvature="0"
         d="m 0,0 c -3.441,4.056 -9.094,7.212 -12.729,7.069 -3.727,-0.145 -3.954,-3.69 -0.396,-7.94 3.583,-4.28 9.501,-7.486 13.11,-7.143 C 3.503,-7.678 3.464,-4.083 0,0"
         id="path286" /></g><g
       transform="translate(126.21,356.66)"
       id="g288"><path
         style="fill:#ee3539"
         inkscape:connector-curvature="0"
         d="m 0,0 c 2.788,1.523 1.367,6.044 -3.106,10.137 -4.473,4.092 -10.485,6.372 -13.502,5.059 -3.103,-1.351 -1.869,-5.964 2.836,-10.269 C -9.066,0.621 -2.867,-1.566 0,0"
         id="path290" /></g><g
       transform="translate(118.36,347.77)"
       id="g292"><path
         style="fill:#ee3539"
         inkscape:connector-curvature="0"
         d="m 0,0 c 1.732,2.801 -1.237,8.061 -6.623,11.846 -5.428,3.813 -11.471,4.841 -13.515,2.202 C -22.241,11.331 -19.3,5.821 -13.554,1.843 -7.853,-2.104 -1.782,-2.882 0,0"
         id="path294" /></g><g
       transform="translate(114.24,334.44)"
       id="g296"><path
         style="fill:#ee3539"
         inkscape:connector-curvature="0"
         d="m 0,0 c 0.365,4.058 -4.049,9.675 -9.931,12.686 -5.974,3.056 -11.422,2.389 -12.099,-1.634 -0.697,-4.137 3.904,-10.12 10.2,-13.212 C -5.636,-5.203 -0.375,-4.169 0,0"
         id="path298" /></g><g
       transform="translate(116.04,315.82)"
       id="g300"><path
         style="fill:#ee3539"
         inkscape:connector-curvature="0"
         d="M 0,0 C -1.271,5.262 -7.177,10.946 -13.345,12.843 -19.658,14.785 -24.051,12.101 -23,6.691 -21.922,1.15 -15.61,-4.925 -9.07,-6.713 -2.687,-8.459 1.3,-5.385 0,0"
         id="path302" /></g><g
       transform="translate(124.78,292.48)"
       id="g304"><path
         style="fill:#ee3539"
         inkscape:connector-curvature="0"
         d="m 0,0 c -2.6,6.152 -9.635,11.629 -15.918,12.345 -6.474,0.737 -9.842,-3.816 -7.304,-10.293 2.585,-6.595 10.166,-12.364 16.704,-12.765 C -0.179,-11.102 2.644,-6.257 0,0"
         id="path306" /></g><g
       transform="translate(139.75,256.99)"
       id="g308"><path
         style="fill:#ee3539"
         inkscape:connector-curvature="0"
         d="m 0,0 c 4.775,2.222 4.783,8.682 0.202,14.451 -4.539,5.717 -12.106,8.883 -17.089,7.062 -5.157,-1.885 -5.657,-8.382 -0.91,-14.505 C -13.004,0.827 -4.945,-2.301 0,0"
         id="path310" /></g><g
       transform="translate(164.37,234.21)"
       id="g312"><path
         style="fill:#ef4038"
         inkscape:connector-curvature="0"
         d="m 0,0 c 2.932,4.152 0.541,11.706 -5.247,17.005 -5.789,5.298 -13.087,6.612 -16.406,2.813 -3.441,-3.94 -1.314,-11.83 4.869,-17.488 C -10.602,-3.329 -3.041,-4.306 0,0"
         id="path314" /></g><g
       transform="translate(192.45,218.83)"
       id="g316"><path
         style="fill:#f05337"
         inkscape:connector-curvature="0"
         d="m 0,0 c 0.129,5.664 -5.074,12.672 -11.673,15.85 -6.659,3.206 -12.539,1.461 -13.097,-4.096 -0.578,-5.755 4.744,-13.284 11.843,-16.6 C -5.896,-8.13 -0.134,-5.863 0,0"
         id="path318" /></g><g
       transform="translate(202.69,220.2)"
       id="g320"><path
         style="fill:#f26838"
         inkscape:connector-curvature="0"
         d="m 0,0 c -5.87,0.925 -9.038,-3.051 -6.926,-9.057 2.178,-6.194 9.045,-12 15.174,-12.78 6.02,-0.765 8.794,3.66 6.359,9.704 C 12.244,-6.266 5.771,-0.909 0,0"
         id="path322" /></g><g
       transform="translate(226.67,213.79)"
       id="g324"><path
         style="fill:#f47837"
         inkscape:connector-curvature="0"
         d="m 0,0 c -5.033,0.536 -7.11,-4.002 -4.475,-10.28 2.7,-6.431 9.193,-11.996 14.328,-12.28 5.012,-0.277 6.672,4.618 3.874,10.794 C 10.993,-5.731 4.918,-0.523 0,0"
         id="path326" /></g><g
       transform="translate(243.65,214.32)"
       id="g328"><path
         style="fill:#f58535"
         inkscape:connector-curvature="0"
         d="m 0,0 c -3.574,-1 -3.647,-6.443 -0.021,-12.217 3.685,-5.868 9.622,-9.6 13.116,-8.282 3.399,1.281 3.124,6.857 -0.479,12.407 C 9.068,-2.627 3.478,0.973 0,0"
         id="path330" /></g><g
       transform="translate(254.88,222.87)"
       id="g332"><path
         style="fill:#f68d36"
         inkscape:connector-curvature="0"
         d="m 0,0 c -2.368,-2.327 -0.816,-8.395 3.56,-13.529 4.411,-5.175 9.821,-7.214 11.994,-4.588 2.111,2.55 0.337,8.547 -3.879,13.425 C 7.489,0.149 2.301,2.261 0,0"
         id="path334" /></g><g
       transform="translate(261.08,233.67)"
       id="g336"><path
         style="fill:#f79435"
         inkscape:connector-curvature="0"
         d="m 0,0 c -1.029,-3.24 1.737,-9.228 6.205,-13.291 4.468,-4.063 8.759,-4.492 9.565,-1.049 0.782,3.349 -2.041,9.127 -6.288,12.989 C 5.235,2.511 1.001,3.151 0,0"
         id="path338" /></g><g
       transform="translate(262.29,247.37)"
       id="g340"><path
         style="fill:#f89835"
         inkscape:connector-curvature="0"
         d="m 0,0 c 0.085,-3.783 3.448,-9.24 7.485,-12.081 4.008,-2.821 7.016,-1.886 6.75,1.979 -0.26,3.769 -3.552,8.963 -7.382,11.703 C 2.997,4.359 -0.082,3.687 0,0"
         id="path342" /></g><g
       transform="translate(258.66,264.24)"
       id="g344"><path
         style="fill:#f79035"
         inkscape:connector-curvature="0"
         d="m 0,0 c 0.891,-3.87 4.564,-8.848 8.143,-11.014 3.534,-2.139 5.532,-0.656 4.523,3.211 C 11.679,-4.019 8.153,0.708 4.734,2.849 1.272,5.018 -0.872,3.786 0,0"
         id="path346" /></g><g
       transform="translate(251.27,279.28)"
       id="g348"><path
         style="fill:#f79035"
         inkscape:connector-curvature="0"
         d="m 0,0 c 1.705,-4.148 5.323,-8.277 8.012,-9.144 2.643,-0.852 3.326,1.801 1.592,5.849 C 7.899,0.687 4.45,4.623 1.835,5.572 -0.824,6.536 -1.676,4.077 0,0"
         id="path350" /></g><g
       transform="translate(241.83,294.84)"
       id="g352"><path
         style="fill:#f68c35"
         inkscape:connector-curvature="0"
         d="m 0,0 c 1.856,-4.023 5.333,-7.619 7.702,-7.983 2.321,-0.356 2.663,2.544 0.826,6.431 C 6.711,2.29 3.391,5.762 1.052,6.252 -1.334,6.751 -1.834,3.975 0,0"
         id="path354" /></g><g
       transform="translate(228.08,317.23)"
       id="g356"><path
         style="fill:#f58435"
         inkscape:connector-curvature="0"
         d="m 0,0 c -2.096,-0.755 -1.096,-4.481 2.294,-8.327 3.411,-3.869 7.832,-6.264 9.815,-5.346 1.939,0.897 0.792,4.631 -2.506,8.339 C 6.325,-1.647 2.051,0.739 0,0"
         id="path358" /></g><g
       transform="translate(212.63,332.08)"
       id="g360"><path
         style="fill:#f47e35"
         inkscape:connector-curvature="0"
         d="m 0,0 c -1.342,-1.535 0.633,-5.63 4.44,-9.113 3.806,-3.484 7.875,-4.919 9.061,-3.242 1.16,1.64 -0.88,5.652 -4.533,8.995 C 5.315,-0.018 1.312,1.5 0,0"
         id="path362" /></g><g
       transform="translate(194.44,345.48)"
       id="g364"><path
         style="fill:#f37138"
         inkscape:connector-curvature="0"
         d="m 0,0 c -0.517,-2.259 2.394,-6.573 6.49,-9.573 4.071,-2.982 7.643,-3.44 7.994,-1.087 0.343,2.301 -2.536,6.461 -6.443,9.35 C 4.111,1.596 0.506,2.209 0,0"
         id="path366" /></g><g
       transform="translate(184.51,347.23)"
       id="g368"><path
         style="fill:#f26638"
         inkscape:connector-curvature="0"
         d="M 0,0 C 4.2,-2.361 7.13,-1.821 6.599,1.127 6.079,4.016 2.407,8.192 -1.652,10.528 -5.759,12.892 -8.821,12.549 -8.441,9.685 -8.054,6.762 -4.25,2.389 0,0"
         id="path370" /></g></g></svg>