<svg xmlns:inkscape="http://www.inkscape.org/namespaces/inkscape" xmlns:rdf="http://www.w3.org/1999/02/22-rdf-syntax-ns#" xmlns="http://www.w3.org/2000/svg" sodipodi:docname="pcs-logo.svg" xml:space="preserve" inkscape:export-filename="E:\Dropbox (Personal)\PlatinumCoreSolutions\Company_Website\images\pcs-logo.png" height="230.73" viewBox="0 0 834.47262 230.7291" width="834.47" inkscape:export-xdpi="139.92999" version="1.1" inkscape:export-ydpi="139.92999" xmlns:cc="http://creativecommons.org/ns#" xmlns:dc="http://purl.org/dc/elements/1.1/" inkscape:version="0.91 r13725" xmlns:sodipodi="http://sodipodi.sourceforge.net/DTD/sodipodi-0.dtd"><sodipodi:namedview fit-margin-left="0" inkscape:zoom="0.88425089" borderopacity="1" inkscape:current-layer="g10" inkscape:cx="416.09864" inkscape:cy="68.174473" inkscape:window-maximized="1" showgrid="false" fit-margin-right="0" bordercolor="#666666" inkscape:window-x="-8" guidetolerance="10" objecttolerance="10" inkscape:window-y="-8" fit-margin-bottom="0" inkscape:window-width="1600" inkscape:pageopacity="0" inkscape:pageshadow="2" pagecolor="#000000" gridtolerance="10" inkscape:window-height="837" fit-margin-top="0"/><g inkscape:label="PCS Logo" inkscape:groupmode="layer" transform="matrix(1.25 0 0 -1.25 -115.17 469.76)"><g style="fill:#fff" transform="translate(300.78 334.06)"><path style="fill:#fff" inkscape:connector-curvature="0" d="m0 0v-21.307h15.218c7.818 0 11.83-0.071 11.83 10.031 0 9.962-1.797 11.276-9.061 11.276h-17.987zm-5.88 5.187h26.427c10.03 0 12.381-6.778 12.381-15.704 0-4.633-0.068-15.981-12.658-15.981h-20.27v-20.199h-5.88v51.884z"/></g><path style="fill:#fff" inkscape:connector-curvature="0" d="m346.01 287.36h-5.464v51.884h5.464v-51.884z"/><g style="fill:#fff" transform="translate(379.15 298.16)"><path style="fill:#fff" inkscape:connector-curvature="0" d="m0 0c0 6.849-4.08 6.778-11 6.778-6.501 0-9.132-0.415-9.132-6.295 0-6.917 2.837-7.264 9.132-7.264 5.468 0 11 0.138 11 6.781m0.138-10.794v3.736l-0.138 0.138c-2.074-4.15-7.399-4.289-11.965-4.289-8.167 0-13.837 1.523-13.837 11 0 10.03 5.188 11.415 14.181 11.415 3.597 0 10.655-0.345 11.415-3.668h0.344v6.71c0 6.643-3.525 7.265-9.682 7.265-4.289 0-9.547 0-9.48-4.982v-1.242h-5.673v0.759c0 9.338 6.436 9.963 14.528 9.892 9.132 0.071 15.843-0.898 15.775-11.969v-24.765h-5.468z"/></g><g style="fill:#fff" transform="translate(412.63 319.26)"><path style="fill:#fff" inkscape:connector-curvature="0" d="m0 0h-14.046v-23.036c0.071-3.944 1.108-4.843 5.12-4.843 5.12 0 5.12 2.699 5.12 6.157v2.698h5.187v-2.698c0-7.194-2.975-10.584-10.445-10.584-8.508 0-10.446 2.421-10.446 10.932v21.374h-4.843v4.428h4.843v8.787h5.464v-8.787h14.046v-4.428z"/></g><path style="fill:#fff" inkscape:connector-curvature="0" d="m423.48 287.36h-5.464v36.318h5.464v-36.318zm0 45.865h-5.464v6.018h5.464v-6.018z"/><g style="fill:#fff" transform="translate(437.73 319.26)"><path style="fill:#fff" inkscape:connector-curvature="0" d="m0 0h0.138c1.73 4.36 7.055 4.843 11.206 4.843 9.341 0 13.836-2.489 13.698-12.59v-24.144h-5.464v24.559c0 6.64-2.56 7.747-8.717 7.747-8.926 0-10.861-2.766-10.861-11.138v-21.168h-5.468v36.319h5.468v-4.428z"/></g><g style="fill:#fff" transform="translate(495.97 292.21)"><path style="fill:#fff" inkscape:connector-curvature="0" d="m0 0h-0.138c-1.936-4.428-6.572-5.258-11.344-5.258-9.615 0-13.006 3.873-13.006 13.421v23.313h5.464v-23.313c0-5.88 0.416-8.994 7.474-8.994 7.676 0 11.621 1.246 11.621 9.892v22.415h5.464v-36.319h-5.535v4.843z"/></g><g style="fill:#fff" transform="translate(515.67 318.08)"><path style="fill:#fff" inkscape:connector-curvature="0" d="m0 0h0.138c1.939 4.704 7.474 6.018 12.108 6.018 4.356 0 9.962-1.246 11.205-6.018 2.422 4.843 8.028 6.018 12.938 6.018 9.338 0 12.591-3.803 12.591-12.796v-23.938h-5.465v23.384c0 6.157-0.898 8.923-7.956 8.923-7.748 0-11.068-2.212-11.068-10.031v-22.276h-5.467v24.35c-0.206 4.843-0.206 7.957-8.092 7.957-7.197 0-10.932-3.043-10.932-10.446v-21.861h-5.464v36.319h5.464v-5.603z"/></g><g style="fill:#fff" transform="translate(309.98 227.78)"><path style="fill:#fff" inkscape:connector-curvature="0" d="m0 0c-9.476 0-15.079 5.951-15.079 16.325v20.064c0 14.668 9.061 16.326 21.651 16.326h4.843c10.861 0 14.184-4.705 14.184-14.941v-1.662h-5.883v1.453c0 7.264-1.52 9.962-9.128 9.962h-3.324c-12.174 0-16.463-1.452-16.463-10.932v-14.248c0-11.83 0.482-17.16 10.307-17.16h6.987c9.409 0 12.313 1.317 12.313 8.717v4.154h5.88v-4.843c0-11.901-7.609-13.215-17.983-13.215h-8.305z"/></g><g style="fill:#fff" transform="translate(356.81 232.21)"><path style="fill:#fff" inkscape:connector-curvature="0" d="m0 0c9.753 0 10.446 1.523 10.446 14.113 0 12.661-0.693 14.181-10.446 14.181s-10.446-1.52-10.446-14.181c0-12.59 0.693-14.113 10.446-14.113m0 32.722c13.489 0 16.119-3.253 16.119-18.609 0-15.288-2.63-18.541-16.119-18.541s-16.119 3.253-16.119 18.541c0 15.356 2.63 18.609 16.119 18.609"/></g><g style="fill:#fff" transform="translate(385.16 264.51)"><path style="fill:#fff" inkscape:connector-curvature="0" d="m0 0-0.277-4.495 0.139-0.139c1.867 4.013 6.227 5.049 10.31 5.049 6.988 0 10.098-3.458 10.098-10.236v-2.631h-5.187v2.422c0 4.498-1.524 6.018-6.09 6.018-6.778 0-8.993-3.252-8.855-9.686v-22.62h-5.464v36.318h5.326z"/></g><g style="fill:#fff" transform="translate(435.45 249.57)"><path style="fill:#fff" inkscape:connector-curvature="0" d="m0 0c-0.277 10.307-1.52 10.929-9.821 10.929-9.895 0-10.24-2.56-10.655-10.929h20.476zm5.674-10.378v-1.314c0-9.618-7.403-10.101-15.495-10.101-14.184 0-16.329 4.704-16.329 18.541 0 15.079 3.32 18.608 16.329 18.608 11.76 0 15.495-2.698 15.495-16.119v-3.665h-26.15c0-11.485 0.831-12.938 10.655-12.938 7.47 0 9.892 0.483 9.892 5.603v1.385h5.603z"/></g><g style="fill:#fff" transform="translate(476.41 265.42)"><path style="fill:#fff" inkscape:connector-curvature="0" d="m0 0c0 13.833 6.366 15.079 19.166 15.079 11.205 0 19.3-0.483 18.676-14.596h-5.88c-0.277 9.061-2.006 9.409-13.006 9.409-11.482 0-13.073-1.452-13.073-8.649 0-9.892 4.705-9.061 14.387-9.338 12.317-0.692 18.541-0.345 18.541-14.39 0-14.668-6.917-15.151-19.993-15.151-13.212 0-20.061 1.591-18.956 16.603h5.883c-0.139-11.415 2.073-11.415 13.073-11.415 11.07 0 14.113 0 14.113 10.172 0 9.892-4.427 8.23-13.904 8.993-10.24 0.828-19.027-0.415-19.027 13.283"/></g><g style="fill:#fff" transform="translate(536.45 232.21)"><path style="fill:#fff" inkscape:connector-curvature="0" d="m0 0c9.753 0 10.446 1.523 10.446 14.113 0 12.661-0.693 14.181-10.446 14.181s-10.446-1.52-10.446-14.181c0-12.59 0.693-14.113 10.446-14.113m0 32.722c13.489 0 16.119-3.253 16.119-18.609 0-15.288-2.63-18.541-16.119-18.541s-16.119 3.253-16.119 18.541c0 15.356 2.63 18.609 16.119 18.609"/></g><path style="fill:#fff" inkscape:connector-curvature="0" d="m565.63 228.2h-5.464v51.884h5.464v-51.884z"/><g style="fill:#fff" transform="translate(598.63 233.04)"><path style="fill:#fff" inkscape:connector-curvature="0" d="m0 0h-0.138c-1.936-4.428-6.573-5.258-11.344-5.258-9.615 0-13.006 3.873-13.006 13.421v23.313h5.464v-23.313c0-5.88 0.416-8.994 7.474-8.994 7.676 0 11.621 1.246 11.621 9.892v22.415h5.464v-36.319h-5.535v4.843z"/></g><g style="fill:#fff" transform="translate(632.25 260.09)"><path style="fill:#fff" inkscape:connector-curvature="0" d="m0 0h-14.046v-23.036c0.071-3.944 1.108-4.843 5.12-4.843 5.12 0 5.12 2.699 5.12 6.157v2.698h5.187v-2.698c0-7.194-2.975-10.584-10.445-10.584-8.508 0-10.446 2.421-10.446 10.932v21.374h-4.843v4.428h4.843v8.787h5.464v-8.787h14.046v-4.428z"/></g><path style="fill:#fff" inkscape:connector-curvature="0" d="m643.1 228.2h-5.464v36.318h5.464v-36.318zm0 45.866h-5.464v6.018h5.464v-6.018z"/><g style="fill:#fff" transform="translate(666.82 232.21)"><path style="fill:#fff" inkscape:connector-curvature="0" d="m0 0c9.753 0 10.446 1.523 10.446 14.113 0 12.661-0.693 14.181-10.446 14.181s-10.446-1.52-10.446-14.181c0-12.59 0.693-14.113 10.446-14.113m0 32.722c13.489 0 16.119-3.253 16.119-18.609 0-15.288-2.63-18.541-16.119-18.541s-16.119 3.253-16.119 18.541c0 15.356 2.63 18.609 16.119 18.609"/></g><g style="fill:#fff" transform="translate(696.08 260.09)"><path style="fill:#fff" inkscape:connector-curvature="0" d="m0 0h0.138c1.73 4.36 7.055 4.843 11.206 4.843 9.341 0 13.836-2.489 13.698-12.59v-24.144h-5.464v24.559c0 6.64-2.56 7.747-8.717 7.747-8.926 0-10.861-2.766-10.861-11.138v-21.168h-5.468v36.319h5.468v-4.428z"/></g><g style="fill:#fff" transform="translate(758.75 255.04)"><path style="fill:#fff" inkscape:connector-curvature="0" d="m0 0h-5.67v1.385c0 3.664-2.77 3.664-8.511 3.664-6.849 0-10.169 0.071-10.169-4.428 0-6.501 1.8-6.018 7.471-6.295 9.341-0.554 17.848 0.902 17.848-10.928 0-10.24-7.055-10.655-15.15-10.655-7.886 0-16.119 0.415-16.119 8.51v3.387h5.673v-2.833c0-3.462 2.145-4.221 10.446-4.221 3.735 0 9.48-0.831 9.48 5.602 0 6.782-2.837 5.536-9.48 5.951-7.886 0.554-15.842-0.277-15.842 10.03 0 10.517 6.018 10.723 15.842 10.723 6.366 0 14.181-0.277 14.181-8.507v-1.385z"/></g><g transform="translate(183.4 325.13)"><path style="fill:#f47f35" inkscape:connector-curvature="0" d="m0 0c0.623-1.552 2.537-3.405 4.251-4.119 1.691-0.705 2.529-0.023 1.896 1.503-0.628 1.513-2.48 3.316-4.161 4.047-1.703 0.739-2.603 0.108-1.986-1.431"/></g><g transform="translate(176.54 326.69)"><path style="fill:#f17038" inkscape:connector-curvature="0" d="m0 0c1.069-1.74 3.24-3.409 4.821-3.717 1.557-0.303 1.944 0.835 0.89 2.53-1.049 1.687-3.153 3.327-4.726 3.674-1.596 0.353-2.049-0.755-0.985-2.487"/></g><g transform="translate(175.52 326.76)"><path style="fill:#f16139" inkscape:connector-curvature="0" d="m0 0c-1.457 1.773-3.72 3.129-5.074 3.029-1.377-0.101-1.294-1.665 0.205-3.491 1.501-1.828 3.816-3.182 5.15-3.026 1.312 0.153 1.177 1.714-0.281 3.488"/></g><g transform="translate(166.24 323.78)"><path style="fill:#f05338" inkscape:connector-curvature="0" d="m0 0c1.878-1.786 4.192-2.691 5.16-2.037 0.952 0.642 0.245 2.559-1.571 4.296-1.823 1.744-4.115 2.688-5.129 2.093-1.031-0.604-0.346-2.559 1.54-4.352"/></g><g transform="translate(163.82 319.1)"><path style="fill:#f05338" inkscape:connector-curvature="0" d="m0 0c2.155-1.59 4.293-1.924 4.784-0.775 0.483 1.131-0.81 3.292-2.898 4.854-2.104 1.574-4.263 1.978-4.814 0.875-0.56-1.121 0.755-3.351 2.928-4.954"/></g><g transform="translate(163.64 318.15)"><path style="fill:#f05338" inkscape:connector-curvature="0" d="m0 0c-2.255 1.25-4.092 1.013-4.077-0.563 0.016-1.597 1.922-3.929 4.231-5.173 2.281-1.23 4.053-0.909 3.983 0.682-0.068 1.571-1.909 3.819-4.137 5.054"/></g><g transform="translate(169.17 306.37)"><path style="fill:#f05438" inkscape:connector-curvature="0" d="m0 0c-0.659 1.906-2.943 4.047-5.139 4.809-2.23 0.774-3.552-0.153-2.915-2.1 0.644-1.967 3.023-4.179 5.275-4.911 2.217-0.721 3.444 0.277 2.779 2.202"/></g><g transform="translate(172.8 298.66)"><path style="fill:#f05438" inkscape:connector-curvature="0" d="m0 0c-1.223 2.084-3.78 3.906-5.748 4.084-2.004 0.181-2.652-1.405-1.409-3.557 1.251-2.164 3.905-4.02 5.888-4.132 1.948-0.11 2.499 1.51 1.269 3.605"/></g><g transform="translate(172.57 293.57)"><path style="fill:#f05438" inkscape:connector-curvature="0" d="m0 0c-1.582-0.467-1.47-2.588 0.278-4.731 1.75-2.145 4.427-3.438 5.951-2.897 1.496 0.531 1.314 2.634-0.378 4.705-1.692 2.07-4.299 3.381-5.851 2.923"/></g><g transform="translate(187.49 277.73)"><path style="fill:#f05137" inkscape:connector-curvature="0" d="m0 0c0.915 1.12 0.035 3.507-1.959 5.357-2.002 1.857-4.42 2.518-5.41 1.452-1.009-1.087-0.15-3.538 1.928-5.45 2.069-1.904 4.509-2.5 5.441-1.359"/></g><g transform="translate(196.73 271.2)"><path style="fill:#f05e38" inkscape:connector-curvature="0" d="m0 0c0.284 1.588-1.178 4.031-3.279 5.493-2.119 1.474-4.132 1.426-4.486-0.143-0.359-1.595 1.134-4.128 3.323-5.621 2.17-1.481 4.153-1.343 4.442 0.271"/></g><g transform="translate(205.62 266.88)"><path style="fill:#f05e38" inkscape:connector-curvature="0" d="m0 0c-0.319 1.889-2.19 4.174-4.205 5.137-2.04 0.975-3.491 0.246-3.215-1.662 0.28-1.935 2.218-4.306 4.302-5.261 2.058-0.943 3.441-0.128 3.118 1.786"/></g><g transform="translate(213.42 264.97)"><path style="fill:#f05e38" inkscape:connector-curvature="0" d="m0 0c-0.835 2.013-2.919 3.966-4.685 4.385-1.793 0.424-2.601-0.884-1.773-2.946 0.835-2.081 2.998-4.093 4.799-4.468 1.773-0.369 2.502 0.997 1.659 3.029"/></g><g transform="translate(219.6 265.41)"><path style="fill:#f26838" inkscape:connector-curvature="0" d="m0 0c-1.229 1.977-3.338 3.481-4.738 3.367-1.423-0.116-1.583-1.856-0.33-3.894 1.259-2.048 3.435-3.57 4.834-3.392 1.376 0.175 1.469 1.932 0.234 3.919"/></g><g transform="translate(224.9 263.5)"><path style="fill:#f26838" inkscape:connector-curvature="0" d="m0 0c0.922 0.647 0.45 2.632-1.039 4.444-1.488 1.81-3.465 2.804-4.43 2.213-0.982-0.601-0.549-2.607 0.983-4.474 1.534-1.867 3.549-2.841 4.486-2.183"/></g><g transform="translate(226.12 272.2)"><path style="fill:#f37337" inkscape:connector-curvature="0" d="m0 0c-1.62 1.549-3.342 2.02-3.849 1.033-0.515-1.003 0.419-3.118 2.088-4.705 1.664-1.582 3.39-2.004 3.856-0.963 0.457 1.024-0.481 3.091-2.095 4.635"/></g><g transform="translate(223.35 277.65)"><path style="fill:#f47b39" inkscape:connector-curvature="0" d="m0 0c-0.057-1.309 1.268-3.395 2.949-4.635 1.669-1.231 3.025-1.137 3.04 0.185 0.015 1.305-1.283 3.33-2.911 4.548-1.639 1.226-3.022 1.193-3.078-0.098"/></g><g transform="translate(228.43 279.94)"><path style="fill:#f47b39" inkscape:connector-curvature="0" d="m0 0c-0.389 1.491-1.945 3.377-3.493 4.236-1.563 0.866-2.551 0.371-2.186-1.131 0.368-1.519 1.97-3.463 3.559-4.319 1.572-0.848 2.513-0.294 2.12 1.214"/></g><g transform="translate(220.61 289.07)"><path style="fill:#f47f35" inkscape:connector-curvature="0" d="m0 0c0.748-1.636 2.518-3.35 3.931-3.809 1.396-0.454 1.902 0.494 1.151 2.1-0.745 1.594-2.462 3.264-3.855 3.748-1.41 0.489-1.969-0.416-1.227-2.039"/></g><g transform="translate(221.37 295.08)"><path style="fill:#f47f35" inkscape:connector-curvature="0" d="m0 0c-1.051 1.621-2.84 3.015-4.014 3.121-1.191 0.107-1.307-1.146-0.239-2.808 1.073-1.669 2.91-3.082 4.084-3.148 1.157-0.065 1.224 1.207 0.169 2.835"/></g><g transform="translate(215.73 302.75)"><path style="fill:#f47f35" inkscape:connector-curvature="0" d="m0 0c-1.304 1.579-3.082 2.646-3.985 2.379-0.915-0.27-0.584-1.806 0.754-3.428s3.148-2.681 4.03-2.368c0.868 0.309 0.506 1.837-0.799 3.417"/></g><g transform="translate(205.25 311.59)"><path style="fill:#f47f35" inkscape:connector-curvature="0" d="m0 0c-0.59-0.636 0.181-2.382 1.726-3.888 1.54-1.501 3.234-2.164 3.782-1.493 0.54 0.661-0.238 2.375-1.736 3.842-1.503 1.471-3.19 2.166-3.772 1.539"/></g><g transform="translate(198.14 317.28)"><path style="fill:#f47f35" inkscape:connector-curvature="0" d="m0 0c-0.221-0.98 0.971-2.857 2.655-4.173 1.672-1.307 3.165-1.541 3.344-0.542 0.177 0.985-0.995 2.813-2.626 4.102-1.641 1.297-3.155 1.58-3.373 0.613"/></g><g transform="translate(190.74 321.89)"><path style="fill:#f47f35" inkscape:connector-curvature="0" d="m0 0c0.187-1.291 1.767-3.208 3.51-4.26 1.726-1.041 2.934-0.823 2.716 0.465-0.215 1.274-1.75 3.135-3.445 4.179-1.713 1.054-2.966 0.893-2.781-0.384"/></g><g transform="translate(171.34 342.11)"><path style="fill:#f16139" inkscape:connector-curvature="0" d="m0 0c1.111-2.698 4.375-5.832 7.248-6.965 2.835-1.118 4.187 0.153 3.06 2.805-1.118 2.631-4.277 5.68-7.096 6.844-2.857 1.179-4.313-0.008-3.212-2.684"/></g><g transform="translate(159.92 344.35)"><path style="fill:#f05538" inkscape:connector-curvature="0" d="m0 0c1.86-2.997 5.538-5.786 8.17-6.21 2.592-0.417 3.174 1.626 1.342 4.546-1.823 2.907-5.39 5.648-8.011 6.142-2.66 0.501-3.352-1.495-1.501-4.478"/></g><g transform="translate(158.22 344.4)"><path style="fill:#f04e37" inkscape:connector-curvature="0" d="m0 0c-2.503 3.026-6.318 5.254-8.553 4.973-2.273-0.285-2.056-3.046 0.521-6.164 2.578-3.12 6.479-5.339 8.678-4.962 2.163 0.372 1.859 3.125-0.646 6.153"/></g><g transform="translate(151.66 335.21)"><path style="fill:#ee4838" inkscape:connector-curvature="0" d="m0 0c1.542 1.21 0.273 4.549-2.823 7.484-3.107 2.947-6.949 4.441-8.595 3.312-1.675-1.149-0.439-4.557 2.774-7.585 3.2-3.017 7.076-4.442 8.644-3.211"/></g><g transform="translate(139.26 329.94)"><path style="fill:#ee3e39" inkscape:connector-curvature="0" d="m0 0c3.648-2.648 7.203-3.076 7.956-1.006 0.741 2.039-1.511 5.765-5.046 8.369-3.564 2.626-7.158 3.176-8.012 1.181-0.868-2.026 1.423-5.874 5.102-8.544"/></g><g transform="translate(132.3 326.94)"><path style="fill:#ee3e39" inkscape:connector-curvature="0" d="m0 0c0.108-2.826 3.383-6.806 7.269-8.832 3.838-2.001 6.753-1.298 6.555 1.513-0.194 2.774-3.357 6.613-7.108 8.628-3.796 2.039-6.823 1.479-6.716-1.309"/></g><g transform="translate(135.32 312.01)"><path style="fill:#ee3e39" inkscape:connector-curvature="0" d="m0 0c1.167-3.432 5.218-7.164 8.983-8.287 3.705-1.106 5.684 0.754 4.484 4.109-1.189 3.323-5.079 6.937-8.752 8.118-3.731 1.2-5.87-0.543-4.715-3.94"/></g><g transform="translate(144.25 300.63)"><path style="fill:#ef4038" inkscape:connector-curvature="0" d="m0 0c-2.997-0.166-3.48-2.97-1.017-6.277 2.477-3.326 6.924-5.808 9.871-5.532 2.893 0.271 3.223 3.107 0.797 6.324-2.413 3.198-6.708 5.648-9.651 5.485"/></g><g transform="translate(165.86 273.97)"><path style="fill:#ef4b37" inkscape:connector-curvature="0" d="m0 0c2.252 1.423 1.269 5.022-2.156 8.061-3.422 3.036-8.081 4.447-10.45 3.132-2.413-1.341-1.537-4.995 2.002-8.14 3.542-3.147 8.308-4.504 10.604-3.053"/></g><g transform="translate(170.47 261.07)"><path style="fill:#f05137" inkscape:connector-curvature="0" d="m0 0c3.688-3.02 7.796-3.671 9.166-1.504 1.346 2.127-0.453 6.195-4.009 9.13-3.57 2.948-7.653 3.718-9.129 1.674-1.505-2.082 0.268-6.267 3.972-9.3"/></g><g transform="translate(195.41 250.03)"><path style="fill:#f05e38" inkscape:connector-curvature="0" d="m0 0c-0.213 2.85-3.586 6.437-7.567 8.065-4.015 1.642-7.221 0.711-7.126-2.135 0.096-2.894 3.555-6.622 7.691-8.268 4.1-1.632 7.219-0.56 7.002 2.338"/></g><g transform="translate(209.12 241.85)"><path style="fill:#f26538" inkscape:connector-curvature="0" d="m0 0c-0.881 3.26-4.388 6.901-7.882 8.185-3.537 1.299-5.785-0.281-4.971-3.584 0.825-3.348 4.459-7.126 8.065-8.382 3.56-1.24 5.681 0.477 4.788 3.781"/></g><g transform="translate(216.16 245.34)"><path style="fill:#f26838" inkscape:connector-curvature="0" d="m0 0c-2.988 0.614-4.258-1.763-2.782-5.349 1.491-3.62 5.175-7.014 8.174-7.54 2.954-0.519 4.089 1.955 2.588 5.487-1.486 3.5-5.036 6.797-7.98 7.402"/></g><g transform="translate(234.34 239.19)"><path style="fill:#f37337" inkscape:connector-curvature="0" d="m0 0c-2.136 3.404-5.704 5.905-8.015 5.596-2.348-0.315-2.523-3.406-0.344-6.916 2.189-3.529 5.87-6.056 8.175-5.634 2.267 0.414 2.33 3.532 0.184 6.954"/></g><g transform="translate(233.82 247.58)"><path style="fill:#f47b39" inkscape:connector-curvature="0" d="m0 0c-1.593-1.139-0.772-4.657 1.86-7.843 2.634-3.187 6.019-4.756 7.535-3.521 1.492 1.215 0.609 4.694-1.949 7.786-2.556 3.09-5.878 4.698-7.446 3.578"/></g><g transform="translate(248.49 243.66)"><path style="fill:#f58535" inkscape:connector-curvature="0" d="m0 0c0.704 1.849-0.955 5.435-3.706 8.044-2.761 2.618-5.636 3.319-6.424 1.533-0.8-1.814 0.856-5.487 3.701-8.168 2.834-2.672 5.713-3.287 6.429-1.409"/></g><g transform="translate(245.01 261.54)"><path style="fill:#f58735" inkscape:connector-curvature="0" d="m0 0c-2.776 2.045-5.062 1.881-5.088-0.409-0.027-2.321 2.273-5.912 5.12-7.978 2.825-2.05 5.064-1.78 5.021 0.562-0.043 2.31-2.297 5.795-5.053 7.825"/></g><g transform="translate(248.2 265.58)"><path style="fill:#f68936" inkscape:connector-curvature="0" d="m0 0c-0.721 2.609-3.393 5.829-5.999 7.229-2.632 1.415-4.24 0.461-3.559-2.169 0.688-2.659 3.44-5.978 6.113-7.371 2.646-1.38 4.174-0.327 3.445 2.311"/></g><g transform="translate(243.28 278.51)"><path style="fill:#f58535" inkscape:connector-curvature="0" d="m0 0c-1.316 2.764-4.242 5.589-6.572 6.338-2.359 0.759-3.238-0.886-1.926-3.702 1.323-2.839 4.34-5.736 6.703-6.441 2.333-0.696 3.121 1.02 1.795 3.805"/></g><g transform="translate(235.74 291.85)"><path style="fill:#f58135" inkscape:connector-curvature="0" d="m0 0c-1.823 2.788-4.855 5.119-6.804 5.216-1.977 0.099-2.103-2.128-0.249-4.987 1.862-2.872 4.975-5.232 6.92-5.26 1.918-0.027 1.963 2.23 0.133 5.031"/></g><g transform="translate(226 304.99)"><path style="fill:#f47f35" inkscape:connector-curvature="0" d="m0 0c-2.239 2.695-5.238 4.446-6.717 3.906-1.501-0.549-0.873-3.242 1.425-6.009 2.299-2.769 5.348-4.505 6.791-3.883 1.421 0.612 0.742 3.289-1.499 5.986"/></g><g transform="translate(208.2 319.82)"><path style="fill:#f37637" inkscape:connector-curvature="0" d="m0 0c-0.944-1.17 0.423-4.202 3.057-6.749 2.627-2.539 5.465-3.582 6.336-2.354 0.86 1.212-0.517 4.187-3.072 6.668-2.562 2.489-5.39 3.589-6.321 2.435"/></g><g transform="translate(199.98 323.19)"><path style="fill:#f17038" inkscape:connector-curvature="0" d="m0 0c2.676-2.082 5.041-2.341 5.295-0.613 0.252 1.706-1.649 4.729-4.259 6.783-2.628 2.069-5.026 2.411-5.343 0.733-0.322-1.701 1.612-4.806 4.307-6.903"/></g><g transform="translate(183.61 337.48)"><path style="fill:#f26838" inkscape:connector-curvature="0" d="m0 0c0.316-2.309 2.837-5.598 5.602-7.306 2.737-1.691 4.636-1.166 4.272 1.134-0.361 2.276-2.81 5.468-5.499 7.167-2.716 1.717-4.688 1.288-4.375-0.995"/></g><g transform="translate(168.24 355.76)"><path style="fill:#f05938" inkscape:connector-curvature="0" d="m0 0c4.175-1.609 6.302-0.051 4.839 3.403-1.44 3.396-5.856 7.438-9.948 9.103-4.161 1.693-6.505 0.333-5.15-3.118 1.378-3.511 6.011-7.751 10.259-9.388"/></g><g transform="translate(155.03 366.28)"><path style="fill:#ef4b37" inkscape:connector-curvature="0" d="m0 0c-2.417 3.8-7.51 7.52-11.479 8.367-4.054 0.866-5.467-1.571-3.046-5.504 2.453-3.985 7.814-7.855 11.865-8.584 3.963-0.713 5.107 1.874 2.66 5.721"/></g><g transform="translate(138 368.73)"><path style="fill:#ee3539" inkscape:connector-curvature="0" d="m0 0c-3.441 4.056-9.094 7.212-12.729 7.069-3.727-0.145-3.954-3.69-0.396-7.94 3.583-4.28 9.501-7.486 13.11-7.143 3.518 0.336 3.479 3.931 0.015 8.014"/></g><g transform="translate(126.21 356.66)"><path style="fill:#ee3539" inkscape:connector-curvature="0" d="m0 0c2.788 1.523 1.367 6.044-3.106 10.137-4.473 4.092-10.485 6.372-13.502 5.059-3.103-1.351-1.869-5.964 2.836-10.269 4.706-4.306 10.905-6.493 13.772-4.927"/></g><g transform="translate(118.36 347.77)"><path style="fill:#ee3539" inkscape:connector-curvature="0" d="m0 0c1.732 2.801-1.237 8.061-6.623 11.846-5.428 3.813-11.471 4.841-13.515 2.202-2.103-2.717 0.838-8.227 6.584-12.205 5.701-3.947 11.772-4.725 13.554-1.843"/></g><g transform="translate(114.24 334.44)"><path style="fill:#ee3539" inkscape:connector-curvature="0" d="m0 0c0.365 4.058-4.049 9.675-9.931 12.686-5.974 3.056-11.422 2.389-12.099-1.634-0.697-4.137 3.904-10.12 10.2-13.212 6.194-3.043 11.455-2.009 11.83 2.16"/></g><g transform="translate(116.04 315.82)"><path style="fill:#ee3539" inkscape:connector-curvature="0" d="m0 0c-1.271 5.262-7.177 10.946-13.345 12.843-6.313 1.942-10.706-0.742-9.655-6.152 1.078-5.541 7.39-11.616 13.93-13.404 6.383-1.746 10.37 1.328 9.07 6.713"/></g><g transform="translate(124.78 292.48)"><path style="fill:#ee3539" inkscape:connector-curvature="0" d="m0 0c-2.6 6.152-9.635 11.629-15.918 12.345-6.474 0.737-9.842-3.816-7.304-10.293 2.585-6.595 10.166-12.364 16.704-12.765 6.339-0.389 9.162 4.456 6.518 10.713"/></g><g transform="translate(139.75 256.99)"><path style="fill:#ee3539" inkscape:connector-curvature="0" d="m0 0c4.775 2.222 4.783 8.682 0.202 14.451-4.539 5.717-12.106 8.883-17.089 7.062-5.157-1.885-5.657-8.382-0.91-14.505 4.793-6.181 12.852-9.309 17.797-7.008"/></g><g transform="translate(164.37 234.21)"><path style="fill:#ef4038" inkscape:connector-curvature="0" d="m0 0c2.932 4.152 0.541 11.706-5.247 17.005-5.789 5.298-13.087 6.612-16.406 2.813-3.441-3.94-1.314-11.83 4.869-17.488 6.182-5.659 13.743-6.636 16.784-2.33"/></g><g transform="translate(192.45 218.83)"><path style="fill:#f05337" inkscape:connector-curvature="0" d="m0 0c0.129 5.664-5.074 12.672-11.673 15.85-6.659 3.206-12.539 1.461-13.097-4.096-0.578-5.755 4.744-13.284 11.843-16.6 7.031-3.284 12.793-1.017 12.927 4.846"/></g><g transform="translate(202.69 220.2)"><path style="fill:#f26838" inkscape:connector-curvature="0" d="m0 0c-5.87 0.925-9.038-3.051-6.926-9.057 2.178-6.194 9.045-12 15.174-12.78 6.02-0.765 8.794 3.66 6.359 9.704-2.363 5.867-8.836 11.224-14.607 12.133"/></g><g transform="translate(226.67 213.79)"><path style="fill:#f47837" inkscape:connector-curvature="0" d="m0 0c-5.033 0.536-7.11-4.002-4.475-10.28 2.7-6.431 9.193-11.996 14.328-12.28 5.012-0.277 6.672 4.618 3.874 10.794-2.734 6.035-8.809 11.243-13.727 11.766"/></g><g transform="translate(243.65 214.32)"><path style="fill:#f58535" inkscape:connector-curvature="0" d="m0 0c-3.574-1-3.647-6.443-0.021-12.217 3.685-5.868 9.622-9.6 13.116-8.282 3.399 1.281 3.124 6.857-0.479 12.407-3.548 5.465-9.138 9.065-12.616 8.092"/></g><g transform="translate(254.88 222.87)"><path style="fill:#f68d36" inkscape:connector-curvature="0" d="m0 0c-2.368-2.327-0.816-8.395 3.56-13.529 4.411-5.175 9.821-7.214 11.994-4.588 2.111 2.55 0.337 8.547-3.879 13.425-4.186 4.841-9.374 6.953-11.675 4.692"/></g><g transform="translate(261.08 233.67)"><path style="fill:#f79435" inkscape:connector-curvature="0" d="m0 0c-1.029-3.24 1.737-9.228 6.205-13.291s8.759-4.492 9.565-1.049c0.782 3.349-2.041 9.127-6.288 12.989s-8.481 4.502-9.482 1.351"/></g><g transform="translate(262.29 247.37)"><path style="fill:#f89835" inkscape:connector-curvature="0" d="m0 0c0.085-3.783 3.448-9.24 7.485-12.081 4.008-2.821 7.016-1.886 6.75 1.979-0.26 3.769-3.552 8.963-7.382 11.703-3.856 2.758-6.935 2.086-6.853-1.601"/></g><g transform="translate(258.66 264.24)"><path style="fill:#f79035" inkscape:connector-curvature="0" d="m0 0c0.891-3.87 4.564-8.848 8.143-11.014 3.534-2.139 5.532-0.656 4.523 3.211-0.987 3.784-4.513 8.511-7.932 10.652-3.462 2.169-5.606 0.937-4.734-2.849"/></g><g transform="translate(251.27 279.28)"><path style="fill:#f79035" inkscape:connector-curvature="0" d="m0 0c1.705-4.148 5.323-8.277 8.012-9.144 2.643-0.852 3.326 1.801 1.592 5.849-1.705 3.982-5.154 7.918-7.769 8.867-2.659 0.964-3.511-1.495-1.835-5.572"/></g><g transform="translate(241.83 294.84)"><path style="fill:#f68c35" inkscape:connector-curvature="0" d="m0 0c1.856-4.023 5.333-7.619 7.702-7.983 2.321-0.356 2.663 2.544 0.826 6.431-1.817 3.842-5.137 7.314-7.476 7.804-2.386 0.499-2.886-2.277-1.052-6.252"/></g><g transform="translate(228.08 317.23)"><path style="fill:#f58435" inkscape:connector-curvature="0" d="m0 0c-2.096-0.755-1.096-4.481 2.294-8.327 3.411-3.869 7.832-6.264 9.815-5.346 1.939 0.897 0.792 4.631-2.506 8.339-3.278 3.687-7.552 6.073-9.603 5.334"/></g><g transform="translate(212.63 332.08)"><path style="fill:#f47e35" inkscape:connector-curvature="0" d="m0 0c-1.342-1.535 0.633-5.63 4.44-9.113 3.806-3.484 7.875-4.919 9.061-3.242 1.16 1.64-0.88 5.652-4.533 8.995-3.653 3.342-7.656 4.86-8.968 3.36"/></g><g transform="translate(194.44 345.48)"><path style="fill:#f37138" inkscape:connector-curvature="0" d="m0 0c-0.517-2.259 2.394-6.573 6.49-9.573 4.071-2.982 7.643-3.44 7.994-1.087 0.343 2.301-2.536 6.461-6.443 9.35-3.93 2.906-7.535 3.519-8.041 1.31"/></g><g transform="translate(184.51 347.23)"><path style="fill:#f26638" inkscape:connector-curvature="0" d="m0 0c4.2-2.361 7.13-1.821 6.599 1.127-0.52 2.889-4.192 7.065-8.251 9.401-4.107 2.364-7.169 2.021-6.789-0.843 0.387-2.923 4.191-7.296 8.441-9.685"/></g></g></svg>
